# xmcd
#
# Track frame offsets: 
#        150
#        21955
#        37268
#        58725
#        77740
#        101148
#        118303
#        135186
#        154261
#        158917
#        176144
#        193168
#        208155
#
# Disc length: 3247 seconds
#
# Revision: 0
# Processed by: cddbd v1.5.2PL0 Copyright (c) Steve Scherf et al.
# Submitted via: ExactAudioCopyFreeDBPlugin 1.0
#
DISCID=bf0cad0d
DTITLE=Gary Clark Jr. - The Story of Sonny Boy Slim
DYEAR=2015
DGENRE=Blues
TTITLE0=The Healing
TTITLE1=Grinder
TTITLE2=Star
TTITLE3=Our Love
TTITLE4=Church
TTITLE5=Hold On
TTITLE6=Cold Blooded
TTITLE7=Wings
TTITLE8=Byob
TTITLE9=Can't Sleep
TTITLE10=Stay
TTITLE11=Shake
TTITLE12=Down To Ride
EXTD=
EXTT0=
EXTT1=
EXTT2=
EXTT3=
EXTT4=
EXTT5=
EXTT6=
EXTT7=
EXTT8=
EXTT9=
EXTT10=
EXTT11=
EXTT12=
PLAYORDER=
